<?xml version="1.0" encoding="UTF-8"?><svg id="Layer_2" xmlns="http://www.w3.org/2000/svg" viewBox="0 0 203.61 203.61"><defs><style>.cls-1{fill:#c8c8c8;}</style></defs><g id="Layer_1-2"><path class="cls-1" d="M196.38,161.49l-59.69-59.69,59.69-59.69c9.64-9.64,9.64-25.26,0-34.89h0c-9.64-9.64-25.26-9.64-34.89,0l-59.69,59.69L42.12,7.23c-9.64-9.64-25.26-9.64-34.89,0h0c-9.64,9.64-9.64,25.26,0,34.89l59.69,59.69L7.23,161.49c-9.64,9.64-9.64,25.26,0,34.89h0c9.64,9.64,25.26,9.64,34.89,0l59.69-59.69,59.69,59.69c9.64,9.64,25.26,9.64,34.89,0h0c9.64-9.64,9.64-25.26,0-34.89Z"/></g></svg>